Coordinates
version=1
nRows=13
nColumns=22
inDegrees=yes

Units are S.I. units (second, meters, Newtons, ...)
If the header above contains a line with 'inDegrees', this indicates whether rotational values are in degrees (yes) or radians (no).

endheader
time	pelvis_tilt	pelvis_list	pelvis_rotation	pelvis_tx	pelvis_ty	pelvis_tz	hip_flexion_r	hip_adduction_r	hip_rotation_r	knee_angle_r	ankle_angle_r	subtalar_angle_r	hip_flexion_l	hip_adduction_l	hip_rotation_l	knee_angle_l	ankle_angle_l	subtalar_angle_l	lumbar_extension	lumbar_bending	lumbar_rotation
      0.01000000	      0.66500744	      0.73362676	    -21.98394164	     -0.96785058	      0.90655478	     -0.38721873	     -5.06746498	     -1.53623540	     -8.48704839	     -2.54190329	     16.11381034	     -1.36675698	      0.93776769	     -1.85938000	    -16.32085085	    -13.05280229	     13.52332842	      2.86131146	     -4.98521303	     -3.24571008	      3.78972738
      0.02000000	      0.66174098	      0.73227347	    -21.98415504	     -0.96778654	      0.90655359	     -0.38724679	     -5.06939216	     -1.53662946	     -8.48729139	     -2.54309835	     16.11327170	     -1.36696599	      0.93711069	     -1.85874951	    -16.32112519	    -13.05329331	     13.52305883	      2.86130228	     -4.98550366	     -3.24629846	      3.78984114
      0.03000000	      0.66915701	      0.71595387	    -21.98157217	     -0.96764270	      0.90657657	     -0.38726057	     -5.09195546	     -1.52614808	     -8.52533672	     -2.54875939	     16.06341925	     -1.38433324	      0.90959027	     -1.86893919	    -16.34370261	    -13.04565605	     13.50864265	      2.86394792	     -4.98777776	     -3.23386954	      3.80315064
      0.04000000	      0.66813354	      0.71335947	    -21.97887038	     -0.96751369	      0.90657020	     -0.38729140	     -5.10080909	     -1.52770615	     -8.52468198	     -2.55198702	     16.06199854	     -1.38513885	      0.90351418	     -1.86740753	    -16.34327384	    -13.04899825	     13.50882075	      2.86468501	     -4.98083506	     -3.23259474	      3.80372817
      0.05000000	      0.66721818	      0.71045802	    -21.97655204	     -0.96736813	      0.90656114	     -0.38732304	     -5.11112467	     -1.52939767	     -8.52654744	     -2.55340321	     16.06009774	     -1.38605931	      0.89560737	     -1.86542464	    -16.34342480	    -13.05142364	     13.50963897	      2.86570190	     -4.97128166	     -3.23080108	      3.80546706
      0.06000000	      0.67078503	      0.70425454	    -21.97381965	     -0.96717072	      0.90655979	     -0.38733400	     -5.15003122	     -1.52587705	     -8.56139362	     -2.51433547	     16.04754170	     -1.39275168	      0.86502225	     -1.86184996	    -16.35022329	    -13.02715499	     13.52254272	      2.87592536	     -4.95995692	     -3.22877786	      3.82067016
      0.07000000	      0.67081930	      0.70146271	    -21.97043431	     -0.96702517	      0.90655008	     -0.38737083	     -5.15943564	     -1.52838651	     -8.56017515	     -2.51831459	     16.04613938	     -1.39311189	      0.85759057	     -1.85950170	    -16.34881187	    -13.03109116	     13.52312303	      2.87702434	     -4.95219936	     -3.22781119	      3.82110705
      0.08000000	      0.67047406	      0.69899702	    -21.96760605	     -0.96687961	      0.90654186	     -0.38740781	     -5.16949132	     -1.53093185	     -8.56174360	     -2.51890779	     16.04532226	     -1.39350659	      0.85006373	     -1.85635409	    -16.34730719	    -13.03316901	     13.52457480	      2.87849592	     -4.94383376	     -3.22651240	      3.82301429
      0.09000000	      0.67591732	      0.69888609	    -21.95769179	     -0.96671155	      0.90654079	     -0.38744404	     -5.20557194	     -1.53413181	     -8.59208604	     -2.48017624	     16.04466178	     -1.39606976	      0.82609423	     -1.84465043	    -16.33163211	    -13.01158364	     13.54078724	      2.89180871	     -4.93911801	     -3.23291743	      3.83625744
      0.10000000	      0.67550391	      0.69663381	    -21.95196537	     -0.96659635	      0.90653698	     -0.38750087	     -5.21128544	     -1.53722485	     -8.59038237	     -2.48415041	     16.04382507	     -1.39617923	      0.82225845	     -1.84112882	    -16.32886239	    -13.01358757	     13.54091536	      2.89297950	     -4.93697510	     -3.23170658	      3.83533639
      0.11000000	      0.67489084	      0.69583620	    -21.94293927	     -0.96649912	      0.90653602	     -0.38757551	     -5.21553052	     -1.54188762	     -8.59032452	     -2.48603011	     16.04351554	     -1.39639147	      0.82138172	     -1.83548754	    -16.32278676	    -13.01434599	     13.54165454	      2.89467024	     -4.93953671	     -3.23030977	      3.83535155
      0.12000000	      0.68444728	      0.70609797	    -21.90776915	     -0.96639694	      0.90654461	     -0.38768939	     -5.23304103	     -1.55901876	     -8.63359513	     -2.47877832	     16.05232137	     -1.40068120	      0.81311738	     -1.80739179	    -16.23710361	    -13.00247018	     13.54335334	      2.91069427	     -4.95365960	     -3.24702682	      3.79647136
      0.13000000	      0.68176129	      0.70516281	    -21.90034014	     -0.96630780	      0.90654264	     -0.38776690	     -5.23418014	     -1.56278804	     -8.63302504	     -2.48103078	     16.05222869	     -1.40071352	      0.81438991	     -1.80287408	    -16.23622088	    -13.00394614	     13.54299034	      2.91072825	     -4.95691373	     -3.24403038	      3.79912850
